<svg width="142" height="40" viewBox="0 0 142 40" fill="none" xmlns="http://www.w3.org/2000/svg">
<g clip-path="url(#clip0_6_1229)">
<path d="M16.3273 3.83301L15.7023 6.68026L16.3273 9.80813C21.8551 9.80813 26.3522 14.3053 26.3522 19.833C26.3522 25.3608 21.8551 29.8579 16.3273 29.8579L15.7023 32.4239L16.3273 35.833C25.1639 35.833 32.3273 28.6696 32.3273 19.833C32.3273 10.9964 25.1639 3.83301 16.3273 3.83301Z" fill="#29CCCC"/>
<path d="M22.3688 19.833C22.3688 16.4964 19.664 13.7915 16.3273 13.7915L15.7023 19.833L16.3273 25.8745C19.664 25.8745 22.3688 23.1696 22.3688 19.833Z" fill="#282866"/>
<path d="M6.3024 29.8579V19.833C6.3024 14.3053 10.7995 9.80813 16.3273 9.80813V3.83301C7.49071 3.83301 0.327271 10.9964 0.327271 19.833V35.833H16.3273V29.8579H6.3024Z" fill="#2EE6E6"/>
<path d="M10.2858 19.833C10.2858 23.1696 12.9907 25.8745 16.3273 25.8745V13.7915C12.9907 13.7915 10.2858 16.4964 10.2858 19.833Z" fill="#4A4080"/>
</g>
<path d="M42.0619 31.333V7.76658H47.7579V17.7317H48.0686L55.8589 7.76658H62.5675L54.2134 18.284L62.7171 31.333H55.9049L50.0363 22.0698L47.7579 24.9466V31.333H42.0619ZM69.7968 31.6322C68.6691 31.6322 67.668 31.4442 66.7935 31.0683C65.9266 30.6848 65.24 30.1094 64.7337 29.3423C64.2351 28.5675 63.9857 27.5971 63.9857 26.431C63.9857 25.4491 64.1583 24.6206 64.5036 23.9455C64.8488 23.2704 65.3244 22.7219 65.9304 22.3C66.5365 21.8781 67.2346 21.5597 68.0247 21.3449C68.8149 21.1224 69.6587 20.9728 70.5563 20.8961C71.5612 20.8041 72.3705 20.7082 72.9842 20.6084C73.598 20.501 74.0429 20.3515 74.3191 20.1597C74.6029 19.9602 74.7448 19.6802 74.7448 19.3197V19.2621C74.7448 18.6714 74.5415 18.215 74.135 17.8928C73.7284 17.5706 73.1799 17.4095 72.4894 17.4095C71.7453 17.4095 71.147 17.5706 70.6943 17.8928C70.2417 18.215 69.9541 18.6599 69.8313 19.2276L64.6416 19.0435C64.7951 17.9695 65.1901 17.0106 65.8269 16.1667C66.4713 15.3152 67.3535 14.6478 68.4735 14.1645C69.6012 13.6735 70.9552 13.428 72.5355 13.428C73.6632 13.428 74.7026 13.5623 75.6539 13.8308C76.6051 14.0916 77.4336 14.4752 78.1394 14.9815C78.8452 15.4801 79.3898 16.0938 79.7734 16.8226C80.1646 17.5514 80.3603 18.3837 80.3603 19.3197V31.333H75.067V28.8705H74.9289C74.6144 29.4689 74.2117 29.9752 73.7207 30.3894C73.2374 30.8037 72.6659 31.1144 72.0062 31.3215C71.3541 31.5286 70.6176 31.6322 69.7968 31.6322ZM71.5344 27.9499C72.1404 27.9499 72.6851 27.8272 73.1684 27.5817C73.6593 27.3362 74.0506 26.9987 74.3421 26.5691C74.6336 26.1318 74.7793 25.6255 74.7793 25.0502V23.3701C74.6182 23.4545 74.4226 23.5312 74.1925 23.6003C73.97 23.6693 73.7245 23.7345 73.456 23.7959C73.1875 23.8573 72.9114 23.911 72.6275 23.957C72.3437 24.003 72.0714 24.0452 71.8105 24.0836C71.2812 24.168 70.8286 24.2984 70.4527 24.4748C70.0845 24.6512 69.8006 24.8814 69.6012 25.1652C69.4094 25.4414 69.3135 25.7713 69.3135 26.1548C69.3135 26.7379 69.5206 27.1828 69.9349 27.4897C70.3568 27.7965 70.89 27.9499 71.5344 27.9499ZM83.8009 31.333V13.6582H89.1516V16.9032H89.3473C89.7155 15.8292 90.3369 14.9815 91.2114 14.3601C92.0859 13.7387 93.1293 13.428 94.3413 13.428C95.5687 13.428 96.6197 13.7426 97.4943 14.3716C98.3688 15.0007 98.925 15.8445 99.1628 16.9032H99.3469C99.6768 15.8522 100.321 15.0122 101.28 14.3831C102.239 13.7464 103.371 13.428 104.675 13.428C106.347 13.428 107.705 13.965 108.748 15.039C109.791 16.1054 110.313 17.5706 110.313 19.4347V31.333H104.686V20.7235C104.686 19.8413 104.46 19.1701 104.007 18.7098C103.555 18.2418 102.968 18.0078 102.247 18.0078C101.472 18.0078 100.862 18.261 100.417 18.7673C99.9798 19.266 99.7611 19.9372 99.7611 20.781V31.333H94.3528V20.666C94.3528 19.8451 94.1304 19.1969 93.6854 18.7213C93.2405 18.2457 92.6536 18.0078 91.9248 18.0078C91.4339 18.0078 91.0004 18.1268 90.6246 18.3646C90.2487 18.5947 89.9533 18.9246 89.7385 19.3542C89.5314 19.7838 89.4278 20.2901 89.4278 20.8731V31.333H83.8009ZM113.8 31.333V13.6582H119.427V31.333H113.8ZM116.619 11.5984C115.829 11.5984 115.15 11.3376 114.582 10.8159C114.015 10.2866 113.731 9.6499 113.731 8.90578C113.731 8.16932 114.015 7.54027 114.582 7.01862C115.15 6.4893 115.829 6.22463 116.619 6.22463C117.417 6.22463 118.096 6.4893 118.656 7.01862C119.223 7.54027 119.507 8.16932 119.507 8.90578C119.507 9.6499 119.223 10.2866 118.656 10.8159C118.096 11.3376 117.417 11.5984 116.619 11.5984ZM131.27 31.6667C129.422 31.6667 127.826 31.3023 126.483 30.5735C125.149 29.8371 124.121 28.79 123.399 27.4321C122.686 26.0666 122.329 24.4441 122.329 22.5646C122.329 20.7389 122.69 19.1432 123.411 17.7777C124.132 16.4045 125.149 15.3382 126.46 14.5787C127.772 13.8116 129.318 13.428 131.098 13.428C132.356 13.428 133.507 13.6237 134.55 14.0149C135.593 14.4061 136.495 14.9853 137.254 15.7525C138.013 16.5196 138.604 17.467 139.026 18.5947C139.448 19.7147 139.659 20.9997 139.659 22.4496V23.8534H124.297V20.5854H134.423C134.416 19.9871 134.274 19.4539 133.997 18.9859C133.721 18.518 133.342 18.1536 132.858 17.8928C132.383 17.6243 131.834 17.49 131.213 17.49C130.584 17.49 130.02 17.632 129.521 17.9158C129.023 18.192 128.628 18.5717 128.336 19.055C128.044 19.5306 127.891 20.0714 127.876 20.6775V24.003C127.876 24.7241 128.018 25.357 128.301 25.9017C128.585 26.4387 128.988 26.8568 129.51 27.156C130.031 27.4551 130.653 27.6047 131.374 27.6047C131.873 27.6047 132.325 27.5357 132.732 27.3976C133.138 27.2595 133.487 27.0562 133.779 26.7877C134.07 26.5192 134.289 26.1894 134.435 25.7981L139.601 25.9477C139.387 27.1061 138.915 28.1149 138.186 28.9741C137.465 29.8256 136.518 30.4892 135.344 30.9648C134.17 31.4327 132.812 31.6667 131.27 31.6667Z" fill="#474747"/>
<defs>
<clipPath id="clip0_6_1229">
<rect width="32" height="32" fill="white" transform="translate(0.327271 3.83301)"/>
</clipPath>
</defs>
</svg>
