<svg width="14" height="9" viewBox="0 0 14 9" fill="none" xmlns="http://www.w3.org/2000/svg">
<path fill-rule="evenodd" clip-rule="evenodd" d="M6.76048 8.47598C3.07948 8.47598 0.0944824 4.51398 0.0944824 4.51398C0.0944824 4.51398 3.07948 0.552979 6.76148 0.552979C10.4425 0.552979 13.4275 4.51498 13.4275 4.51498C13.4275 4.51498 10.4425 8.47698 6.76148 8.47698L6.76048 8.47598ZM2.68248 5.72298C2.23044 5.35021 1.80475 4.94657 1.40848 4.51498C1.71848 4.17698 2.15448 3.74098 2.68248 3.30698C3.82348 2.36998 5.26648 1.55298 6.76248 1.55298C8.25848 1.55298 9.70048 2.36998 10.8425 3.30698C11.3705 3.74098 11.8055 4.17698 12.1165 4.51498C11.8055 4.85298 11.3705 5.28898 10.8415 5.72298C9.70048 6.65998 8.25848 7.47698 6.76148 7.47698C5.26648 7.47698 3.82348 6.65998 2.68248 5.72298ZM8.02548 4.10098C8.25648 4.10098 8.46548 4.00798 8.61848 3.85798C8.76737 4.27681 8.76947 4.7338 8.62444 5.15398C8.47941 5.57416 8.19586 5.93257 7.82033 6.17038C7.44479 6.4082 6.99957 6.5113 6.55772 6.46277C6.11587 6.41424 5.70364 6.21697 5.38867 5.90331C5.07371 5.58966 4.87471 5.17826 4.82433 4.73662C4.77395 4.29497 4.87519 3.84933 5.11144 3.4728C5.34768 3.09627 5.70489 2.81122 6.12446 2.66444C6.54403 2.51765 7.00104 2.51784 7.42048 2.66498C7.30439 2.78373 7.22591 2.93409 7.19487 3.09723C7.16384 3.26038 7.18162 3.42905 7.24599 3.58213C7.31036 3.73522 7.41847 3.86591 7.55677 3.95785C7.69506 4.04978 7.85741 4.09888 8.02348 4.09898L8.02548 4.10098Z" fill="#111111"/>
</svg>
