<svg width="17" height="17" viewBox="0 0 17 17" fill="none" xmlns="http://www.w3.org/2000/svg">
<g clip-path="url(#clip0_1_596)">
<path d="M14.9695 8.228C14.9741 7.77999 14.9265 7.33297 14.8275 6.896H8.47754V9.368H12.2035C12.1365 9.799 11.9815 10.212 11.7495 10.583C11.5175 10.954 11.2115 11.275 10.8505 11.527V11.614L12.8805 13.147H13.0145C13.6807 12.5172 14.2065 11.7539 14.5575 10.907C14.9075 10.062 15.0735 9.154 15.0435 8.242" fill="#4285F4"/>
<path d="M8.47754 14.748C10.1201 14.7954 11.7196 14.2191 12.9545 13.135L10.8245 11.503C10.1291 11.9607 9.3097 12.1933 8.47754 12.169C7.62548 12.1679 6.79496 11.9012 6.10154 11.406C5.41296 10.9149 4.89765 10.2182 4.62954 9.41602H4.54854L2.46454 11.003V11.076C3.02839 12.1788 3.88683 13.1037 4.94454 13.748C6.00899 14.3973 7.23072 14.7431 8.47754 14.748Z" fill="#34A853"/>
<path d="M4.62853 9.41298C4.48474 8.98345 4.41376 8.53291 4.41853 8.07998C4.41501 7.62801 4.48354 7.17838 4.62153 6.74798V6.67298L2.50453 5.05298H2.43753C1.96254 5.98149 1.71484 7.00953 1.71484 8.05248C1.71484 9.09543 1.96254 10.1235 2.43753 11.052L4.62853 9.41298Z" fill="#FBBC05"/>
<path d="M8.47756 3.99606C9.44473 3.98049 10.3812 4.33581 11.0946 4.98906L13.0016 3.14906C11.7701 2.01507 10.1514 1.39535 8.47756 1.41706C7.22632 1.41721 5.9991 1.76068 4.92956 2.41006C3.86636 3.05491 3.00352 3.98284 2.43756 5.09006L4.62256 6.74906C4.88856 5.94906 5.40456 5.25106 6.09756 4.75706C6.79248 4.26223 7.62447 3.99555 8.47756 3.99606Z" fill="#EB4335"/>
</g>
<defs>
<clipPath id="clip0_1_596">
<rect width="16" height="16" fill="white" transform="translate(0.380554 0.0830078)"/>
</clipPath>
</defs>
</svg>
